<?xml version="1.0" standalone="no"?>
<!DOCTYPE svg PUBLIC "-//W3C//DTD SVG 20010904//EN"
 "http://www.w3.org/TR/2001/REC-SVG-20010904/DTD/svg10.dtd">
<svg version="1.0" xmlns="http://www.w3.org/2000/svg"
 width="300.000000pt" height="300.000000pt" viewBox="0 0 300.000000 300.000000"
 preserveAspectRatio="xMidYMid meet">
<metadata>
Created by potrace 1.10, written by Peter Selinger 2001-2011
</metadata>
<g transform="translate(0.000000,300.000000) scale(0.050000,-0.050000)"
fill="#000000" stroke="none">
<path d="M2630 4594 c-514 -148 -918 -534 -1095 -1047 -96 -280 -101 -778 -6
-685 4 4 127 121 274 258 586 552 583 549 568 596 -18 57 -92 58 -143 2 -21
-24 -172 -170 -336 -325 l-298 -283 14 130 c81 724 734 1291 1440 1252 447
-25 402 -28 402 28 0 114 -519 160 -820 74z"/>
<path d="M3685 4509 c-231 -62 -251 -72 -330 -156 -47 -49 -265 -255 -485
-456 -220 -202 -603 -556 -850 -787 -248 -231 -506 -469 -573 -530 -125 -112
-254 -424 -207 -500 19 -30 335 9 427 52 54 26 60 24 99 -27 480 -639 1468
-774 2145 -294 739 523 868 1639 267 2298 -114 124 -152 137 -168 56 -16 -76
-55 -150 -85 -160 -40 -13 -30 57 45 305 95 313 106 305 -285 199z m131 -151
c27 -42 -33 -281 -76 -308 -9 -5 12 -62 46 -125 54 -99 63 -135 63 -265 1
-249 76 -166 -1374 -1515 l-220 -204 -38 48 c-228 290 -173 560 181 885 1301
1195 1235 1120 1100 1258 -125 127 -71 187 232 254 22 5 45 10 50 12 6 1 22
-17 36 -40z m-471 -419 c-41 -40 -313 -292 -605 -561 -291 -268 -643 -598
-782 -733 -277 -270 -271 -267 -339 -194 l-49 52 101 93 c412 383 894 829
1079 999 121 111 297 274 390 362 l170 159 55 -52 56 -52 -76 -73z m1034
-1214 c-2 -134 -198 -482 -364 -648 l-97 -97 -710 0 -710 0 169 153 169 152
407 9 c434 10 494 23 445 101 -19 31 -65 36 -349 41 l-327 5 159 160 158 159
526 0 c487 0 525 -3 524 -35z m-2824 -392 c77 -70 84 -113 17 -113 -75 0 -170
100 -149 157 19 51 32 47 132 -44z m442 -243 c21 -55 16 -53 -60 30 -151 165
-153 173 -75 239 l68 57 22 -133 c12 -73 32 -160 45 -193z m1683 -261 c0 -61
-443 -169 -690 -169 -241 0 -650 107 -650 170 0 6 302 10 670 10 369 0 670 -5
670 -11z"/>
<path d="M4205 1439 c-25 -10 -45 -30 -45 -45 0 -57 45 -154 71 -154 51 0 131
40 119 60 -8 13 -26 13 -53 -2 -52 -27 -78 -3 -32 31 47 34 44 57 -5 41 -46
-15 -55 20 -10 37 17 7 30 21 30 32 0 25 -14 25 -75 0z"/>
<path d="M1705 1427 c-35 -14 -31 -67 8 -111 45 -49 17 -72 -33 -26 -33 30
-40 31 -40 6 0 -77 106 -98 148 -30 18 29 13 43 -28 74 -35 27 -41 39 -19 40
17 0 42 -11 55 -24 19 -19 24 -17 24 9 0 27 -59 79 -84 73 -3 0 -17 -6 -31
-11z"/>
<path d="M1884 1334 c-41 -96 -50 -154 -26 -154 13 0 28 14 35 30 16 42 40 37
53 -10 6 -22 21 -40 34 -40 13 0 20 11 14 25 -6 14 -16 39 -23 56 -9 22 4 40
41 56 70 32 47 53 -30 27 -54 -19 -60 -17 -67 22 -7 41 -9 40 -31 -12z"/>
<path d="M3955 1358 c-100 -58 5 -225 111 -176 77 35 96 158 20 129 -16 -6
-38 -11 -48 -11 -32 0 -19 -37 17 -45 33 -8 33 -10 0 -24 -54 -24 -99 3 -91
54 4 32 20 45 54 45 27 1 53 12 57 25 10 30 -70 32 -120 3z"/>
<path d="M2084 1235 c-22 -107 -17 -115 68 -115 42 0 65 8 58 20 -7 11 -30 20
-51 20 -59 0 -46 36 16 46 53 8 53 9 10 24 -62 20 -57 57 5 42 37 -9 50 -5 50
18 0 82 -137 34 -156 -55z"/>
<path d="M3732 1285 c-40 -136 -26 -263 16 -152 10 24 29 29 82 21 86 -14 87
-3 9 91 -69 83 -91 92 -107 40z"/>
<path d="M2280 1280 c0 -11 9 -20 20 -20 11 0 20 -36 20 -80 0 -44 9 -80 20
-80 11 0 20 32 20 70 0 49 9 70 30 70 46 0 36 34 -15 47 -66 18 -95 16 -95 -7z"/>
<path d="M3549 1239 l-32 -63 -45 42 c-65 61 -75 53 -68 -53 6 -93 47 -121 45
-31 0 42 1 43 37 11 35 -33 39 -32 66 4 27 38 28 38 28 -4 0 -23 9 -48 20 -55
12 -8 20 26 20 88 0 121 -27 145 -71 61z"/>
<path d="M2480 1240 c-50 -50 -51 -104 -3 -147 45 -41 90 -42 123 -3 21 26 16
30 -35 30 -34 0 -65 12 -71 27 -17 43 18 80 64 68 56 -15 73 17 24 44 -52 28
-56 27 -102 -19z"/>
<path d="M2672 1228 c-20 -52 -13 -168 10 -168 12 0 26 18 32 40 6 22 23 40
38 40 16 0 28 -18 28 -40 0 -22 9 -40 20 -40 11 0 20 41 20 90 0 50 -9 90 -20
90 -11 0 -20 -18 -20 -39 0 -27 -10 -36 -30 -28 -16 6 -30 23 -30 38 0 41 -34
53 -48 17z"/>
<path d="M3295 1248 c-22 -22 -18 -184 5 -198 11 -7 25 -1 30 14 14 37 -17
202 -35 184z"/>
<path d="M2994 1228 c-30 -30 -12 -48 36 -36 64 16 63 -5 -1 -65 -28 -26 -46
-56 -39 -67 16 -26 130 -26 130 0 0 11 -20 20 -44 20 l-44 0 45 42 c25 23 42
57 39 75 -6 34 -96 56 -122 31z"/>
</g>
</svg>
